name C:\Users\u0101727\Documents\MyRepositories\upper-imu-dc\OpenSim\subject0\MA\train_motion_filt.mot									
datacolumns 10									
datarows 80									
range 7.51 8.3									
endheader 									
time	clav_prot	clav_elev	scapula_abduction	scapula_elevation	scapula_upward_rot	scapula_winging	plane_elv	shoulder_elv	axial_rot
7.51	-23.69383973	0.52071976	3.07855584	-5.93935489	40.01507813	-2.25730308	60.55714643	53.16984207	-19.45320131
7.52	-23.72490549	0.72192864	3.2619242	-5.84436428	40.38293558	-2.38680147	60.7532207	53.62969416	-19.08058973
7.53	-23.76045752	0.92505936	3.4418053	-5.74837847	40.75624057	-2.5164404	60.93478227	54.08789613	-18.71019995
7.54	-23.80066331	1.12966295	3.61837054	-5.65175236	41.13542333	-2.6461033	61.10119839	54.54445809	-18.34445195
7.55	-23.84560652	1.33528605	3.79182923	-5.55481624	41.52076939	-2.77565409	61.25197115	54.99942608	-17.98590001
7.56	-23.8952972	1.54147216	3.96240014	-5.45787541	41.91240786	-2.90493643	61.3867386	55.45287153	-17.63712837
7.57	-23.9496823	1.74776236	4.1302879	-5.36121113	42.31030685	-3.03377392	61.50527224	55.90488102	-17.30064417
7.58	-24.00865623	1.95369585	4.29566426	-5.26508258	42.71427517	-3.16197153	61.6074712	56.35554727	-16.97877419
7.59	-24.0720711	2.15881128	4.45865428	-5.16972918	43.12396988	-3.28931808	61.69335366	56.80496186	-16.67357143
7.6	-24.13974645	2.36264917	4.6193272	-5.0753724	43.53890896	-3.41558997	61.76304658	57.25320972	-16.38673612
7.61	-24.21147842	2.56475619	4.77769151	-4.98221679	43.95848832	-3.54055594	61.81677468	57.70036541	-16.11955423
7.62	-24.28704838	2.7646915	4.93369341	-4.89044977	44.38200261	-3.66398294	61.85484992	58.14649066	-15.8728552
7.63	-24.3662314	2.96203486	5.08721803	-4.80024023	44.80866914	-3.78564271	61.87766241	58.59163297	-15.64698881
7.64	-24.44880474	3.15639611	5.23809239	-4.71173607	45.23765416	-3.90531885	61.88567337	59.03582458	-15.4418203
7.65	-24.53455629	3.34742521	5.38608971	-4.62506136	45.66810063	-4.02281393	61.87941006	59.47908147	-15.25674183
7.66	-24.62329304	3.53482175	5.53093439	-4.54031335	46.09915628	-4.13795616	61.85946235	59.9214022	-15.09069824
7.67	-24.71484918	3.71834306	5.67230781	-4.45756018	46.5300009	-4.25060513	61.82647987	60.36276627	-14.94222508
7.68	-24.80909332	3.89780989	5.80985467	-4.37683962	46.95987143	-4.36065635	61.78116867	60.80313212	-14.80949705
7.69	-24.9059343	4.0731088	5.94319033	-4.29815935	47.38808376	-4.46804405	61.724286	61.24243466	-14.69038575
7.7	-25.00532497	4.24419091	6.07190926	-4.22149908	47.81404992	-4.57274205	61.65663203	61.6805828	-14.58252584
7.71	-25.10726327	4.41106632	6.19559492	-4.14681473	48.23728979	-4.67476265	61.57903788	62.11745722	-14.48338887
7.72	-25.2117902	4.57379448	6.31383135	-4.07404459	48.65743656	-4.77415333	61.49234934	62.55290914	-14.39036412
7.73	-25.31898454	4.73247062	6.4262162	-4.00311739	49.07423568	-4.87099155	61.39740687	62.98676052	-14.30084499
7.74	-25.42895431	4.8872091	6.53237528	-3.93396175	49.4875376	-4.96537785	61.29502273	63.41880633	-14.21231894
7.75	-25.54182567	5.0381248	6.63197757	-3.86651652	49.8972851	-5.0574278	61.18595666	63.84881924	-14.12245742
7.76	-25.65772994	5.18531425	6.72475031	-3.80074089	50.30349653	-5.14726344	61.07089234	64.27655655	-14.02920175
7.77	-25.77678976	5.32883816	6.81049297	-3.73662348	50.7062466	-5.2350049	60.95041635	64.70176933	-13.93083936
7.78	-25.89910552	5.46870738	6.88908924	-3.67418912	51.10564666	-5.3207629	60.82500184	65.12421281	-13.82606545
7.79	-26.02474295	5.604874	6.96051645	-3.61350244	51.50182602	-5.40463283	60.69499819	65.54365749	-13.71402502
7.8	-26.1537227	5.73722871	7.02485157	-3.55466753	51.89491593	-5.48669079	60.56062766	65.95989983	-13.59433218
7.81	-26.28601259	5.86560529	7.08227377	-3.49782323	52.28503718	-5.56699192	60.42198926	66.37277181	-13.46706511
7.82	-26.42152262	5.98979174	7.13306324	-3.44313434	52.67229188	-5.64557083	60.27906934	66.78214861	-13.33273746
7.83	-26.5601032	6.10954757	7.17759655	-3.39077923	53.05675955	-5.72244411	60.13175802	67.18795395	-13.19224886
7.84	-26.70154615	6.22462526	7.21633874	-3.34093489	53.43849711	-5.79761434	59.97987006	67.59016292	-13.0468189
7.85	-26.8455886	6.3347941	7.24983262	-3.29376092	53.8175421	-5.87107509	59.82316869	67.98880249	-12.89791005
7.86	-26.99191906	6.43986387	7.2786857	-3.24938382	54.193918	-5.94281623	59.66139047	68.38394976	-12.74714517
7.87	-27.14018547	6.53970584	7.3035553	-3.20788336	54.56764047	-6.01282905	59.49426981	68.77572868	-12.59622524
7.88	-27.29000457	6.63426906	7.32513218	-3.16928233	54.9387233	-6.08111041	59.32156161	69.16430558	-12.44685172
7.89	-27.44097228	6.72359004	7.34412326	-3.13354088	55.30718302	-6.14766574	59.14306092	69.54988397	-12.30065691
7.9	-27.59267462	6.80779495	7.36123347	-3.10055591	55.67304141	-6.21251055	58.95861881	69.93269917	-12.15914425
7.91	-27.74469888	6.88709448	7.37714739	-3.07016562	56.03632567	-6.27567051	58.7681541	70.31301278	-12.02363968
7.92	-27.89664473	6.96177198	7.39251083	-3.04215848	56.3970663	-6.33718038	58.57166076	70.69110745	-11.8952539
7.93	-28.04813492	7.03216679	7.40791292	-3.01628553	56.75529315	-6.3970821	58.36921101	71.06728187	-11.77485561
7.94	-28.19882538	7.09865454	7.42386931	-2.9922747	57.11103043	-6.45542254	58.16095453	71.44184599	-11.66305509
7.95	-28.34841435	7.16162687	7.44080697	-2.96984549	57.46429146	-6.51225135	57.94711416	71.81511656	-11.56019782
7.96	-28.4966503	7.2214724	7.45905139	-2.9487227	57.8150741	-6.56761937	57.7279786	72.18741275	-11.46636748
7.97	-28.64333844	7.27856091	7.47881655	-2.92864797	58.16335737	-6.62157768	57.50389305	72.55905176	-11.38139795
7.98	-28.78834552	7.33323161	7.5001982	-2.90938831	58.50909997	-6.67417769	57.27524843	72.9303442	-11.30489322
7.99	-28.93160287	7.38578638	7.52317073	-2.89074123	58.85224064	-6.72547213	57.04247021	73.30158906	-11.2362542
8	-29.07310755	7.43648777	7.54758752	-2.87253643	59.19270036	-6.77551671	56.80600769	73.67306798	-11.17471073
8.01	-29.21292158	7.48556117	7.57318491	-2.85463442	59.53038604	-6.8243725	56.56632453	74.04503857	-11.11935675
8.02	-29.35116933	7.53320026	7.59958917	-2.83692286	59.86519498	-6.87210831	56.32389102	74.41772691	-11.06918647
8.03	-29.48803319	7.57957426	7.62632629	-2.81931134	60.19701954	-6.91880314	56.0791784	74.79131904	-11.02312916
8.04	-29.62374761	7.62483576	7.65283419	-2.80172572	60.52575146	-6.96454795	55.83265504	75.16595194	-10.98008076
8.05	-29.75859163	7.66912793	7.67847689	-2.78410272	60.85128511	-7.00944686	55.58478413	75.54170436	-10.93893083
8.06	-29.8928801	7.71259012	7.70256041	-2.76638538	61.17351959	-7.05361727	55.33602215	75.91858802	-10.89858428
8.07	-30.02695387	7.75536142	7.72435018	-2.74851998	61.4923596	-7.09718905	55.08681728	76.29653969	-10.85797794
8.08	-30.161169	7.7975819	7.74308967	-2.73045435	61.80771522	-7.14030266	54.83760731	76.67541472	-10.81609284
8.09	-30.29588571	7.83939174	7.75801981	-2.71213756	62.11950127	-7.18310654	54.58881624	77.05498202	-10.77196325
8.1	-30.43145732	7.88092878	7.76839882	-2.69352078	62.42763656	-7.22575373	54.34084964	77.43492102	-10.72468399
8.11	-30.56821975	7.9223249	7.77352174	-2.67455892	62.73204387	-7.26839829	54.09408874	77.81482035	-10.67341708
8.12	-30.70648225	7.96370202	7.77273886	-2.65521259	63.03265084	-7.31119155	53.84888375	78.1941785	-10.61739895
8.13	-30.8465198	8.00516823	7.76547234	-2.63545001	63.32939233	-7.35427865	53.60554675	78.57240657	-10.55594865
8.14	-30.98856752	8.04681469	7.75123002	-2.6152486	63.62221418	-7.39779556	53.36434498	78.94883314	-10.48847745
8.15	-31.1328177	8.08871327	7.72961592	-2.59459607	63.91107839	-7.44186676	53.12549498	79.32271161	-10.41449956
8.16	-31.27941935	8.13091531	7.70033641	-2.57349095	64.19596932	-7.48660369	52.88915819	79.69323012	-10.33364361
8.17	-31.42848063	8.17345108	7.66320203	-2.55194279	64.4769006	-7.53210405	52.6554384	80.05952403	-10.24566415
8.18	-31.58007392	8.21632983	7.61812436	-2.52997207	64.75392228	-7.57845204	52.42438137	80.42069114	-10.15045242
8.19	-31.7342434	8.2595401	7.56510808	-2.50761004	65.02712751	-7.62571927	52.19597673	80.77580926	-10.04804549
8.2	-31.89101462	8.30305032	7.5042386	-2.48489864	65.29665829	-7.67396664	51.97016228	81.12395583	-9.93863322
8.21	-32.0504055	8.34680963	7.43566572	-2.46189025	65.56270958	-7.72324679	51.74683029	81.46422914	-9.82256206
8.22	-32.21243782	8.39074912	7.35958435	-2.43864726	65.82553126	-7.77360714	51.5258357	81.79577033	-9.70033552
8.23	-32.37714836	8.43478385	7.27621356	-2.41524123	66.08542738	-7.82509342	51.30700543	82.11778543	-9.57261062
8.24	-32.54459866	8.47881578	7.1857753	-2.39175133	66.34275258	-7.87775334	51.09014838	82.4295664	-9.44019048
8.25	-32.71488253	8.5227379	7.0884744	-2.36826198	66.59790548	-7.93164024	50.87506527	82.73051013	-9.30401302
8.26	-32.8881305	8.56643924	6.9844813	-2.34485977	66.8513193	-7.98681642	50.66155762	83.02013459	-9.16513624
8.27	-33.06451093	8.60981082	6.87391878	-2.32162964	67.10345023	-8.04335591	50.44943538	83.29809101	-9.02472077
8.28	-33.24422748	8.65275159	6.75685362	-2.29865093	67.35476416	-8.10134621	50.23852248	83.56417154	-8.88401016
8.29	-33.42751322	8.69517391	6.63329376	-2.27599359	67.60572259	-8.16088911	50.02866024	83.81831183	-8.7443098
8.3	-33.61462185	8.73700775	6.50319104	-2.25371522	67.85676861	-8.22210007	49.81970838	84.06058843	-8.60696498
